<svg width="136" height="136" viewBox="0 0 136 136" fill="none" xmlns="http://www.w3.org/2000/svg">
<g filter="url(#filter0_d_207_4)">
<rect x="4.5" y="0.5" width="127" height="127" stroke="black" shape-rendering="crispEdges"/>
<rect x="4" width="128" height="128" rx="12" fill="#18171A"/>
<path d="M61.474 35.62V44.278H44.704V91H34.876V44.278H18.028V35.62H61.474ZM114.968 72.748C113.824 78.728 111.224 83.486 107.168 87.022C103.164 90.506 97.964 92.248 91.568 92.248C83.664 92.248 77.346 89.518 72.614 84.058C67.882 78.598 65.516 71.708 65.516 63.388C65.516 55.016 67.882 48.1 72.614 42.64C77.346 37.128 83.664 34.372 91.568 34.372C97.652 34.372 102.696 36.036 106.7 39.364C110.704 42.692 113.356 47.19 114.656 52.858L104.438 53.404C103.658 50.18 102.15 47.658 99.914 45.838C97.678 43.966 94.87 43.03 91.49 43.03C86.238 43.03 82.286 44.928 79.634 48.724C76.982 52.52 75.656 57.408 75.656 63.388C75.656 69.316 76.982 74.178 79.634 77.974C82.338 81.718 86.29 83.59 91.49 83.59C95.026 83.59 97.912 82.576 100.148 80.548C102.436 78.468 103.944 75.686 104.672 72.202L114.968 72.748Z" fill="white"/>
</g>
<defs>
<filter id="filter0_d_207_4" x="0" y="0" width="136" height="136" filterUnits="userSpaceOnUse" color-interpolation-filters="sRGB">
<feFlood flood-opacity="0" result="BackgroundImageFix"/>
<feColorMatrix in="SourceAlpha" type="matrix" values="0 0 0 0 0 0 0 0 0 0 0 0 0 0 0 0 0 0 127 0" result="hardAlpha"/>
<feOffset dy="4"/>
<feGaussianBlur stdDeviation="2"/>
<feComposite in2="hardAlpha" operator="out"/>
<feColorMatrix type="matrix" values="0 0 0 0 0 0 0 0 0 0 0 0 0 0 0 0 0 0 0.25 0"/>
<feBlend mode="normal" in2="BackgroundImageFix" result="effect1_dropShadow_207_4"/>
<feBlend mode="normal" in="SourceGraphic" in2="effect1_dropShadow_207_4" result="shape"/>
</filter>
</defs>
</svg>
