<svg width="128" height="128" viewBox="0 0 128 128" fill="none" xmlns="http://www.w3.org/2000/svg">
<rect width="128" height="128" rx="16" fill="#18171A"/>
<path d="M57.474 35.62V44.278H40.704V91H30.876V44.278H14.028V35.62H57.474ZM110.968 72.748C109.824 78.728 107.224 83.486 103.168 87.022C99.164 90.506 93.964 92.248 87.568 92.248C79.664 92.248 73.346 89.518 68.614 84.058C63.882 78.598 61.516 71.708 61.516 63.388C61.516 55.016 63.882 48.1 68.614 42.64C73.346 37.128 79.664 34.372 87.568 34.372C93.652 34.372 98.696 36.036 102.7 39.364C106.704 42.692 109.356 47.19 110.656 52.858L100.438 53.404C99.658 50.18 98.15 47.658 95.914 45.838C93.678 43.966 90.87 43.03 87.49 43.03C82.238 43.03 78.286 44.928 75.634 48.724C72.982 52.52 71.656 57.408 71.656 63.388C71.656 69.316 72.982 74.178 75.634 77.974C78.338 81.718 82.29 83.59 87.49 83.59C91.026 83.59 93.912 82.576 96.148 80.548C98.436 78.468 99.944 75.686 100.672 72.202L110.968 72.748Z" fill="white"/>
</svg>
